<svg xmlns="http://www.w3.org/2000/svg" width="1280" height="1280" viewBox="0 0 1280 1280" version="1.1">
	<path d="M 375.500 69.092 C 306.856 69.698, 298.117 70.158, 274.500 74.402 C 264.167 76.260, 245.798 81.121, 235 84.856 C 195.198 98.624, 154.947 127.193, 127.722 161 C 110.024 182.977, 95.595 209.695, 86.504 237.325 C 79.182 259.580, 75.906 276.376, 73.597 303.500 C 71.988 322.406, 71.930 334.995, 71.787 698 C 71.679 972.545, 71.726 976.282, 75.616 1001.500 C 77.640 1014.625, 82.249 1033.107, 86.528 1045.257 C 91.145 1058.367, 100.989 1079.742, 106.781 1089.233 C 124.625 1118.472, 154.276 1149.569, 182 1168.117 C 218.879 1192.791, 254.460 1204.713, 304.500 1209.165 C 316.625 1210.244, 380.932 1210.500, 640 1210.500 C 816.275 1210.500, 966.380 1210.185, 973.567 1209.799 C 998.388 1208.469, 1030.472 1202.461, 1050 1195.488 C 1074.719 1186.660, 1109.959 1165.615, 1130.110 1147.646 C 1146.303 1133.207, 1165.716 1110.329, 1175.872 1093.717 C 1181.805 1084.013, 1192.677 1062.026, 1196.749 1051.500 C 1201.996 1037.934, 1207.645 1016.666, 1209.895 1002 C 1213.455 978.800, 1213.500 974.308, 1213.500 646 C 1213.500 302.523, 1213.619 311.011, 1208.358 278 C 1208.051 276.075, 1207.664 273.600, 1207.498 272.500 C 1207.241 270.801, 1204.724 259.884, 1203.463 255 C 1199.198 238.488, 1196.197 229.373, 1190.949 217 C 1186.669 206.911, 1174.063 183.683, 1169.405 177.305 C 1168.523 176.097, 1165.917 172.432, 1163.613 169.161 C 1158.740 162.240, 1150.706 152.838, 1143.250 145.330 C 1140.362 142.422, 1138 139.509, 1138 138.855 C 1138 138.201, 1137.748 137.919, 1137.439 138.227 C 1137.131 138.536, 1135.869 137.823, 1134.635 136.644 C 1126.457 128.831, 1121.036 124.380, 1110 116.414 C 1094.501 105.227, 1094.452 105.197, 1079.647 97.521 C 1066.181 90.540, 1052.244 84.766, 1042.142 81.983 C 1015.388 74.613, 1001.369 72.095, 975 69.925 C 959.106 68.617, 501.306 67.981, 375.500 69.092 M 1020.728 216.929 C 1027.569 217.590, 1030.521 218.498, 1038.228 222.312 C 1044.929 225.628, 1046.668 226.215, 1044.500 224.428 C 1037.894 218.984, 1031.573 216.767, 1021.731 216.441 L 1012.500 216.135 1020.728 216.929 M 1007.750 217.662 C 1008.438 217.940, 1009.563 217.940, 1010.250 217.662 C 1010.938 217.385, 1010.375 217.158, 1009 217.158 C 1007.625 217.158, 1007.063 217.385, 1007.750 217.662 M 999.250 220.031 C 998.013 220.529, 997 221.175, 997 221.468 C 997 222.438, 998.592 222.020, 1000.559 220.532 C 1002.771 218.858, 1002.462 218.740, 999.250 220.031 M 980.500 232.192 C 976.546 234.998, 964 247.219, 964 248.264 C 964 248.713, 966.138 247.053, 968.750 244.574 C 975.740 237.941, 980.284 234, 980.940 234 C 981.258 234, 982.081 233.100, 982.768 232 C 984.302 229.543, 984.224 229.550, 980.500 232.192 M 347 596 L 347 948 392 948 L 437 948 437 596 L 437 244 392 244 L 347 244 347 596 M 499 596.014 L 499 948.027 709.250 947.764 L 919.500 947.500 925.418 945.267 C 934.507 941.837, 945.847 935.004, 951.066 929.813 C 956.347 924.560, 962.237 915.414, 964.539 908.890 C 969.051 896.102, 968.991 898.938, 969.010 696.239 C 969.020 590.890, 968.877 504.543, 968.691 504.358 C 968.506 504.173, 967.480 504.804, 966.411 505.761 C 960.548 511.010, 951.193 518.620, 910.500 551.248 C 902.250 557.863, 895.275 563.587, 895 563.968 C 893.663 565.821, 877.982 575.579, 873.767 577.181 C 871.133 578.181, 866.546 579, 863.574 579 L 858.169 579 852.335 585.750 C 849.126 589.462, 846.273 592.725, 845.995 593 C 845.717 593.275, 842.823 597.100, 839.563 601.500 C 836.304 605.900, 831.699 611.975, 829.330 615 C 826.961 618.025, 824.155 621.625, 823.095 623 C 814.637 633.974, 808.403 641.336, 806.618 642.460 C 805.453 643.192, 801.350 644.096, 797.500 644.469 C 793.650 644.841, 786.225 645.839, 781 646.687 C 770.547 648.383, 769.341 648.551, 757 650.034 C 743.960 651.601, 734.495 653.192, 696 660.283 C 694.625 660.536, 689 661.681, 683.500 662.827 C 674.068 664.792, 650.903 669, 649.519 669 C 649.169 669, 649.207 668.474, 649.605 667.830 C 650.116 667.003, 649.767 666.895, 648.414 667.461 C 647.361 667.901, 644.229 668.475, 641.454 668.737 C 637.077 669.151, 635.992 668.864, 633.277 666.580 C 631.556 665.131, 629.861 662.645, 629.512 661.054 C 628.840 657.995, 636.618 624.611, 641.976 607.561 C 643.541 602.578, 646.396 592.875, 648.318 586 C 651.889 573.230, 653.410 567.033, 661.864 530.809 C 664.520 519.428, 667.428 508.995, 668.327 507.623 C 669.353 506.058, 675.645 502.278, 685.231 497.469 C 693.629 493.257, 702.075 488.841, 704 487.656 C 711.311 483.159, 714.036 481.727, 733.501 472.154 L 753.503 462.317 753.158 457.199 C 752.591 448.796, 755.271 442.685, 763.314 434.039 C 778.730 417.468, 782.959 412.990, 794.989 400.500 C 801.876 393.350, 815.833 378.732, 826.005 368.016 C 836.177 357.300, 849.675 343.129, 856 336.525 C 887.393 303.748, 889.928 301, 888.757 301 C 888.488 301, 885.675 303.492, 882.505 306.538 C 875.797 312.983, 874.189 313.295, 879.974 307.029 C 882.159 304.661, 883.726 302.365, 883.455 301.927 C 883.184 301.488, 884.120 299.971, 885.535 298.556 C 886.958 297.133, 887.791 295.471, 887.399 294.837 C 886.959 294.124, 887.134 293.965, 887.862 294.415 C 888.506 294.813, 888.738 295.615, 888.377 296.199 C 888 296.808, 888.313 297.063, 889.111 296.797 C 889.875 296.543, 890.784 295.022, 891.132 293.418 C 891.479 291.813, 891.817 291.063, 891.882 291.750 C 891.947 292.438, 892.702 293, 893.559 293 C 894.416 293, 894.835 293.457, 894.490 294.016 C 894.144 294.575, 893.373 294.731, 892.776 294.362 C 892.179 293.993, 891.956 294.119, 892.280 294.643 C 893.247 296.208, 891.220 298.500, 888.869 298.500 C 887.663 298.500, 886.490 299.175, 886.262 300 C 885.922 301.233, 886.020 301.254, 886.812 300.122 C 887.345 299.360, 888.319 299.079, 888.991 299.495 C 889.760 299.969, 892.958 297.536, 897.694 292.873 C 904.581 286.091, 926.791 262.504, 933.234 255.129 C 937.716 249.999, 934.468 251.585, 929.403 257 C 926.831 259.750, 924 261.948, 923.113 261.884 C 921.774 261.788, 921.797 261.690, 923.250 261.311 C 925.075 260.834, 925.229 260.425, 925.430 255.500 C 925.529 253.063, 925.970 252.522, 927.776 252.620 C 928.999 252.686, 930 252.398, 930 251.981 C 930 251.564, 930.563 251.243, 931.250 251.269 C 939.905 251.590, 929.885 247.653, 916.500 245.474 C 908.804 244.220, 877.899 244.007, 703.250 244.004 L 499 244 499 596.014 M 980.429 249.046 C 978.912 250.042, 974.310 254.376, 970.204 258.678 C 944.953 285.134, 926.725 304.341, 921.501 310 C 913.446 318.725, 898.403 334.400, 887.997 344.911 C 883.321 349.635, 874.321 359.121, 867.997 365.991 C 855.194 379.902, 855.993 379.044, 846.947 388.587 C 835.919 400.221, 827 410.911, 827 412.495 C 827 414.736, 830.686 418, 833.216 418 C 834.689 418, 838.297 415.053, 843.966 409.218 C 860.806 391.888, 897.715 353.336, 905.447 345 C 909.784 340.325, 920.149 329.525, 928.482 321 C 936.815 312.475, 950.802 297.870, 959.566 288.544 C 968.330 279.218, 978.131 269.093, 981.348 266.044 C 987.946 259.788, 989.917 256.594, 989.351 253.078 C 988.528 247.977, 984.698 246.246, 980.429 249.046 M 927 255.559 C 927 256.416, 927.450 256.840, 928 256.500 C 928.550 256.160, 929 255.459, 929 254.941 C 929 254.423, 928.550 254, 928 254 C 927.450 254, 927 254.702, 927 255.559 M 929.500 284 C 925.680 287.850, 923.032 291, 923.616 291 C 924.201 291, 926.169 289.313, 927.991 287.250 C 929.813 285.188, 932.674 282.038, 934.348 280.250 C 939.948 274.272, 936.531 276.914, 929.500 284 M 920 293.761 C 916.477 297.718, 913.849 301, 914.203 301 C 914.412 301, 916.571 298.975, 919 296.500 C 921.429 294.025, 922.985 292.017, 922.458 292.038 C 921.931 292.059, 920.825 292.834, 920 293.761 M 876 339.500 C 873.571 341.975, 871.938 344, 872.370 344 C 873.159 344, 881 336.203, 881 335.418 C 881 334.548, 880.295 335.124, 876 339.500 M 868 348.059 C 868 348.641, 868.450 348.840, 869 348.500 C 869.550 348.160, 870 347.684, 870 347.441 C 870 347.198, 869.550 347, 869 347 C 868.450 347, 868 347.477, 868 348.059 M 830.813 353.683 C 831.534 353.972, 832.397 353.936, 832.729 353.604 C 833.061 353.272, 832.471 353.036, 831.417 353.079 C 830.252 353.127, 830.015 353.364, 830.813 353.683 M 720 362.378 C 720 362.585, 720.788 363.373, 721.750 364.128 C 723.336 365.371, 723.371 365.336, 722.128 363.750 C 720.821 362.084, 720 361.555, 720 362.378 M 816 374.059 C 816 374.641, 816.450 374.840, 817 374.500 C 817.550 374.160, 818 373.684, 818 373.441 C 818 373.198, 817.550 373, 817 373 C 816.450 373, 816 373.477, 816 374.059 M 994.500 374 C 994.840 374.550, 995.316 375, 995.559 375 C 995.802 375, 996 374.550, 996 374 C 996 373.450, 995.523 373, 994.941 373 C 994.359 373, 994.160 373.450, 994.500 374 M 708.500 400 C 708.840 400.550, 709.568 401, 710.118 401 C 710.668 401, 710.840 400.550, 710.500 400 C 710.160 399.450, 709.432 399, 708.882 399 C 708.332 399, 708.160 399.450, 708.500 400 M 808.405 410.250 L 806.500 412.500 808.750 410.595 C 810.864 408.805, 811.455 408, 810.655 408 C 810.465 408, 809.453 409.012, 808.405 410.250 M 781 409.960 C 781 410.488, 778.722 413.235, 775.937 416.064 C 773.152 418.893, 771.072 421.406, 771.315 421.648 C 771.793 422.127, 782.288 411.450, 782.833 409.930 C 783.017 409.418, 782.679 409, 782.083 409 C 781.487 409, 781 409.432, 781 409.960 M 696.638 415.500 C 696.955 416.325, 697.391 417, 697.607 417 C 697.823 417, 698 416.325, 698 415.500 C 698 414.675, 697.564 414, 697.031 414 C 696.499 414, 696.322 414.675, 696.638 415.500 M 572 417.393 C 572 417.609, 572.698 418.054, 573.552 418.382 C 574.442 418.723, 574.843 418.555, 574.493 417.989 C 573.906 417.038, 572 416.583, 572 417.393 M 768 423 C 768 423.550, 768.477 424, 769.059 424 C 769.641 424, 769.840 423.550, 769.500 423 C 769.160 422.450, 768.684 422, 768.441 422 C 768.198 422, 768 422.450, 768 423 M 536 432.393 C 536 432.609, 536.675 433.045, 537.500 433.362 C 538.325 433.678, 539 433.501, 539 432.969 C 539 432.436, 538.325 432, 537.500 432 C 536.675 432, 536 432.177, 536 432.393 M 751.543 446.931 C 751.226 447.443, 751.425 448.144, 751.984 448.490 C 752.543 448.835, 753 448.416, 753 447.559 C 753 445.802, 752.400 445.544, 751.543 446.931 M 751.195 452.500 C 751.215 454.150, 751.439 454.704, 751.693 453.731 C 751.947 452.758, 751.930 451.408, 751.656 450.731 C 751.382 450.054, 751.175 450.850, 751.195 452.500 M 750.500 457 C 750.840 457.550, 751.316 458, 751.559 458 C 751.802 458, 752 457.550, 752 457 C 752 456.450, 751.523 456, 750.941 456 C 750.359 456, 750.160 456.450, 750.500 457 M 717.759 476.901 C 708.549 482.021, 707.926 483.023, 716.676 478.642 C 720.622 476.666, 724.136 474.589, 724.485 474.025 C 725.320 472.673, 725.507 472.594, 717.759 476.901 M 750 481.632 C 743.675 485.248, 726.125 494.526, 711 502.249 C 695.875 509.972, 683.111 516.637, 682.636 517.059 C 682.161 517.482, 680.254 524.931, 678.398 533.612 C 676.543 542.293, 674.587 550.770, 674.052 552.448 C 673.517 554.127, 671.661 561.800, 669.928 569.500 C 668.195 577.200, 664.982 589.350, 662.788 596.500 C 657.786 612.804, 653.014 629.266, 653.006 630.250 C 653.003 630.663, 653.450 631, 654 631 C 654.550 631, 655 630.325, 655 629.500 C 655 628.675, 655.356 628, 655.791 628 C 658.729 628, 681.145 572.537, 689.134 545.500 C 690.760 540, 692.547 534.058, 693.107 532.295 C 693.976 529.561, 696.428 527.710, 709.813 519.687 C 718.441 514.515, 731.806 506.282, 739.513 501.392 C 747.221 496.501, 755.096 491.644, 757.013 490.597 C 758.931 489.550, 762.435 487.413, 764.800 485.847 C 767.165 484.281, 769.640 482.981, 770.300 482.957 C 770.960 482.934, 769.475 481.135, 767 478.960 C 764.525 476.785, 762.275 475.017, 762 475.031 C 761.725 475.045, 756.325 478.015, 750 481.632 M 690.507 491.989 C 690.157 492.555, 690.558 492.723, 691.448 492.382 C 693.180 491.717, 693.497 491, 692.059 491 C 691.541 491, 690.843 491.445, 690.507 491.989 M 677.656 498.116 C 673.280 500.425, 673.253 501.734, 677.621 499.799 C 680.616 498.472, 683.752 495.967, 682.321 496.044 C 681.870 496.069, 679.770 497.001, 677.656 498.116 M 671.500 501 C 671.160 501.550, 671.359 502, 671.941 502 C 672.523 502, 673 501.550, 673 501 C 673 500.450, 672.802 500, 672.559 500 C 672.316 500, 671.840 500.450, 671.500 501 M 962.872 510.750 C 961.629 512.336, 961.664 512.371, 963.250 511.128 C 964.916 509.821, 965.445 509, 964.622 509 C 964.415 509, 963.627 509.788, 962.872 510.750 M 649.079 558.583 C 649.127 559.748, 649.364 559.985, 649.683 559.188 C 649.972 558.466, 649.936 557.603, 649.604 557.271 C 649.272 556.939, 649.036 557.529, 649.079 558.583 M 648.638 562.500 C 648.955 563.325, 649.391 564, 649.607 564 C 649.823 564, 650 563.325, 650 562.500 C 650 561.675, 649.564 561, 649.031 561 C 648.499 561, 648.322 561.675, 648.638 562.500 M 651.409 564.631 C 650.840 567.665, 650.546 568.058, 650.004 566.511 C 649.388 564.755, 649.269 564.814, 648.832 567.097 C 648.231 570.243, 649.484 574.310, 650.343 572 C 651.658 568.466, 653.091 561.758, 652.630 561.297 C 652.355 561.021, 651.805 562.522, 651.409 564.631 M 647.290 576.250 C 647.230 577.487, 646.929 580.300, 646.622 582.500 C 646.314 584.700, 646.327 585.607, 646.650 584.515 C 646.973 583.423, 647.815 580.610, 648.521 578.265 C 649.507 574.989, 649.526 574, 648.602 574 C 647.941 574, 647.351 575.013, 647.290 576.250 M 645.079 589.583 C 645.127 590.748, 645.364 590.985, 645.683 590.188 C 645.972 589.466, 645.936 588.603, 645.604 588.271 C 645.272 587.939, 645.036 588.529, 645.079 589.583 M 633.625 605.798 C 633.354 606.237, 633.545 607.249, 634.051 608.048 C 634.768 609.182, 634.973 609.007, 634.985 607.250 C 635 604.937, 634.492 604.394, 633.625 605.798 M 636.457 607.070 C 636.239 607.423, 635.582 608.969, 634.998 610.505 C 634.112 612.836, 634.164 613.109, 635.310 612.158 C 636.066 611.530, 637 611.334, 637.387 611.720 C 637.774 612.107, 637.057 613.267, 635.795 614.298 C 634.533 615.330, 634.063 615.883, 634.750 615.528 C 635.640 615.068, 636.018 615.979, 636.063 618.691 C 636.123 622.253, 636.192 622.338, 637.129 620 C 637.680 618.625, 638.714 615.009, 639.427 611.964 C 640.657 606.711, 640.624 606.429, 638.788 606.429 C 637.724 606.429, 636.675 606.717, 636.457 607.070 M 637 608 C 637 608.550, 637.477 609, 638.059 609 C 638.641 609, 638.840 608.550, 638.500 608 C 638.160 607.450, 637.684 607, 637.441 607 C 637.198 607, 637 607.450, 637 608 M 631.070 612.250 C 631.109 613.487, 631.566 615.400, 632.086 616.500 C 632.852 618.122, 632.925 617.962, 632.472 615.654 C 632.165 614.089, 632.438 612.177, 633.079 611.404 C 633.999 610.297, 633.902 610, 632.622 610 C 631.586 610, 631.025 610.812, 631.070 612.250 M 609.466 682.858 C 604.279 686.021, 595.613 696.510, 591.776 704.270 C 586.620 714.697, 585.584 719.570, 586.449 729.325 C 586.847 733.821, 587.247 738.475, 587.337 739.667 C 587.427 740.858, 587.689 741.645, 587.920 741.414 C 588.150 741.183, 589.449 742.908, 590.807 745.247 C 592.164 747.586, 595.022 751.327, 597.159 753.561 C 599.297 755.794, 600.799 757.868, 600.498 758.168 C 600.198 758.469, 600.750 759.342, 601.726 760.107 C 603.339 761.374, 603.376 761.341, 602.128 759.750 C 600.214 757.310, 601.469 757.567, 605.785 760.500 C 609.579 763.078, 609.528 763.811, 605.684 761.933 C 603.758 760.992, 603.787 761.097, 605.932 762.825 C 608.215 764.663, 608.246 764.814, 606.432 765.280 C 604.977 765.654, 605.117 765.771, 607 765.753 C 608.375 765.740, 610.400 766.052, 611.500 766.446 C 613.465 767.151, 613.466 767.135, 611.573 765.592 C 608.755 763.294, 610.148 762.746, 614.348 764.501 C 622.988 768.111, 632.180 769.354, 650 769.322 C 669.313 769.286, 685.171 767.296, 708.384 761.994 C 724.627 758.283, 754.491 752.563, 766.500 750.862 C 779.170 749.068, 806.607 749.284, 816 751.252 C 831.507 754.502, 844.798 761.551, 849.520 769.032 C 854.963 777.653, 854.927 789.541, 849.423 801.576 C 842.971 815.683, 816.781 835.683, 783.264 852.097 C 771.333 857.940, 764.466 861.885, 763.404 863.507 C 760.365 868.144, 764.286 875, 769.977 875 C 771.615 875, 778.789 872.300, 785.919 869 C 793.049 865.700, 799.099 863, 799.363 863 C 801.993 863, 830.589 844.103, 839.500 836.476 C 854.351 823.766, 859.906 817.480, 863.860 808.911 C 871.224 792.953, 872.083 782.302, 867.051 769.342 C 863.499 760.192, 859.349 754.623, 851.877 748.978 C 833.708 735.250, 806.071 730.383, 769.500 734.473 C 754.060 736.200, 716.631 742.881, 696.974 747.420 C 650.784 758.084, 613.517 753.860, 605.047 737 C 602.795 732.517, 601.712 727, 603.084 727 C 603.653 727, 603.840 727.450, 603.500 728 C 603.160 728.550, 603.569 729, 604.410 729 C 605.357 729, 605.718 728.430, 605.362 727.500 C 605.045 726.675, 604.202 726, 603.488 726 C 601.454 726, 602.804 718.429, 606.075 711.500 C 607.953 707.520, 611.279 703.171, 615.954 698.581 C 622.150 692.498, 623 691.219, 623 687.986 C 623 685.695, 622.311 683.687, 621.171 682.655 C 618.750 680.464, 613.234 680.560, 609.466 682.858 M 622.500 696 C 622.160 696.550, 622.359 697, 622.941 697 C 623.523 697, 624 696.550, 624 696 C 624 695.450, 623.802 695, 623.559 695 C 623.316 695, 622.840 695.450, 622.500 696 M 590.584 699.641 C 590.057 701.014, 590.204 701.076, 591.477 700.019 C 593.212 698.579, 593.393 698, 592.107 698 C 591.616 698, 590.931 698.739, 590.584 699.641 M 808 712 C 808 713.100, 808.408 714, 808.906 714 C 809.405 714, 809.577 713.100, 809.290 712 C 809.002 710.900, 808.594 710, 808.383 710 C 808.173 710, 808 710.900, 808 712 M 729.813 737.683 C 730.534 737.972, 731.397 737.936, 731.729 737.604 C 732.061 737.272, 731.471 737.036, 730.417 737.079 C 729.252 737.127, 729.015 737.364, 729.813 737.683 M 788.750 750.814 C 787.237 750.989, 785.999 751.440, 785.998 751.816 C 785.996 752.192, 789.862 752.353, 794.588 752.174 C 799.314 751.995, 803 751.666, 802.778 751.445 C 802.216 750.883, 792.084 750.427, 788.750 750.814 M 773.828 752.107 C 773.233 752.474, 775.504 752.736, 778.874 752.690 C 782.243 752.643, 785 752.244, 785 751.802 C 785 750.864, 775.416 751.125, 773.828 752.107 M 827 757.376 C 828.925 758.123, 830.688 758.569, 830.917 758.367 C 831.650 757.721, 830.587 757.249, 827 756.626 L 823.500 756.018 827 757.376 M 703.813 765.683 C 704.534 765.972, 705.397 765.936, 705.729 765.604 C 706.061 765.272, 705.471 765.036, 704.417 765.079 C 703.252 765.127, 703.015 765.364, 703.813 765.683 M 613.813 769.683 C 614.534 769.972, 615.397 769.936, 615.729 769.604 C 616.061 769.272, 615.471 769.036, 614.417 769.079 C 613.252 769.127, 613.015 769.364, 613.813 769.683 M 617.813 769.683 C 618.534 769.972, 619.397 769.936, 619.729 769.604 C 620.061 769.272, 619.471 769.036, 618.417 769.079 C 617.252 769.127, 617.015 769.364, 617.813 769.683 M 870.714 773.016 C 871.488 775.974, 872.792 776.362, 872.239 773.470 C 871.979 772.111, 871.411 771, 870.977 771 C 870.543 771, 870.424 771.907, 870.714 773.016 M 851.158 780 C 851.158 781.375, 851.385 781.938, 851.662 781.250 C 851.940 780.563, 851.940 779.438, 851.662 778.750 C 851.385 778.063, 851.158 778.625, 851.158 780 M 872 779 C 872 779.550, 872.477 780, 873.059 780 C 873.641 780, 873.840 779.550, 873.500 779 C 873.160 778.450, 872.684 778, 872.441 778 C 872.198 778, 872 778.450, 872 779 M 851.254 785.796 C 851.290 788.024, 851.636 788.764, 852.321 788.079 C 853.006 787.394, 852.989 786.325, 852.268 784.783 C 851.270 782.648, 851.204 782.713, 851.254 785.796 M 850 791 C 850 791.550, 850.450 792, 851 792 C 851.550 792, 852 791.550, 852 791 C 852 790.450, 851.550 790, 851 790 C 850.450 790, 850 790.450, 850 791 M 849.459 794.067 C 849.096 794.653, 849.014 795.348, 849.276 795.610 C 849.538 795.872, 850.019 795.392, 850.345 794.543 C 851.021 792.781, 850.445 792.471, 849.459 794.067 M 845.131 803.513 C 843.853 805.379, 841.613 808.191, 840.154 809.762 C 834.682 815.653, 833.721 817.345, 838.304 813.016 C 843.158 808.432, 848.632 801.299, 847.876 800.543 C 847.645 800.311, 846.409 801.648, 845.131 803.513 M 863.262 813.500 C 861.525 816.525, 860.493 819, 860.969 819 C 861.446 819, 862.660 817.232, 863.668 815.070 C 864.675 812.909, 866.333 810.914, 867.351 810.637 C 868.368 810.361, 868.904 809.654, 868.542 809.067 C 867.364 807.162, 866.474 807.909, 863.262 813.500 M 919.813 810.683 C 920.534 810.972, 921.397 810.936, 921.729 810.604 C 922.061 810.272, 921.471 810.036, 920.417 810.079 C 919.252 810.127, 919.015 810.364, 919.813 810.683 M 866 817 C 866 817.550, 866.477 818, 867.059 818 C 867.641 818, 867.840 817.550, 867.500 817 C 867.160 816.450, 866.684 816, 866.441 816 C 866.198 816, 866 816.450, 866 817 M 858.459 821.067 C 858.096 821.653, 858.014 822.348, 858.276 822.610 C 858.538 822.872, 859.019 822.392, 859.345 821.543 C 860.021 819.781, 859.445 819.471, 858.459 821.067 M 824 825.059 C 824 825.641, 824.450 825.840, 825 825.500 C 825.550 825.160, 826 824.684, 826 824.441 C 826 824.198, 825.550 824, 825 824 C 824.450 824, 824 824.477, 824 825.059 M 820.500 827 C 820.160 827.550, 820.332 828, 820.882 828 C 821.432 828, 822.160 827.550, 822.500 827 C 822.840 826.450, 822.668 826, 822.118 826 C 821.568 826, 820.840 826.450, 820.500 827 M 908.604 836.590 C 907.676 839.008, 908.936 840.206, 910.628 838.515 C 911.453 837.690, 911.847 836.562, 911.505 836.008 C 910.587 834.522, 909.298 834.781, 908.604 836.590 M 804 838.059 C 804 838.641, 804.450 838.840, 805 838.500 C 805.550 838.160, 806 837.684, 806 837.441 C 806 837.198, 805.550 837, 805 837 C 804.450 837, 804 837.477, 804 838.059 M 796 842.140 C 789.423 845.558, 782 850.115, 782 850.736 C 782 851.420, 799.302 841.991, 800.964 840.401 C 802.818 838.628, 802.638 838.691, 796 842.140 M 926 840.858 C 926 841.886, 929.029 843.304, 929.729 842.605 C 929.972 842.361, 929.233 841.660, 928.086 841.046 C 926.938 840.432, 926 840.347, 926 840.858 M 826.500 849.070 C 824.850 850.128, 822.263 851.489, 820.750 852.095 C 819.237 852.700, 818 853.602, 818 854.098 C 818 855.546, 819.095 855.165, 822.589 852.500 C 824.392 851.125, 826.291 850, 826.811 850 C 827.330 850, 828.315 849.325, 829 848.500 C 830.572 846.606, 830.216 846.687, 826.500 849.070 M 906.700 853.341 C 906.417 854.078, 906.587 855.316, 907.077 856.091 C 907.727 857.116, 907.974 856.751, 907.985 854.750 C 908.001 851.764, 907.511 851.226, 906.700 853.341 M 924 853 C 924 853.550, 924.450 854, 925 854 C 925.550 854, 926 853.550, 926 853 C 926 852.450, 925.550 852, 925 852 C 924.450 852, 924 852.450, 924 853 M 815.020 856.476 C 814.231 857.426, 814.155 858, 814.819 858 C 816.027 858, 817.436 856.103, 816.743 855.409 C 816.491 855.158, 815.716 855.638, 815.020 856.476 M 926.564 856.707 C 926.022 858.132, 926.136 858.247, 927.124 857.267 C 927.808 856.588, 928.115 855.781, 927.807 855.474 C 927.499 855.166, 926.940 855.721, 926.564 856.707 M 928.080 859.250 C 926.843 861.236, 926.855 861.354, 928.181 860.259 C 929.008 859.576, 929.980 859.313, 930.342 859.675 C 930.704 860.037, 931 859.583, 931 858.667 C 931 856.338, 929.736 856.590, 928.080 859.250 M 801.500 864 C 801.160 864.550, 801.332 865, 801.882 865 C 802.432 865, 803.160 864.550, 803.500 864 C 803.840 863.450, 803.668 863, 803.118 863 C 802.568 863, 801.840 863.450, 801.500 864 M 798 865 C 797.099 865.582, 796.975 865.975, 797.691 865.985 C 798.346 865.993, 799.160 865.550, 799.500 865 C 800.267 863.758, 799.921 863.758, 798 865 M 906.638 865.500 C 906.322 866.325, 906.499 867, 907.031 867 C 907.564 867, 908 866.325, 908 865.500 C 908 864.675, 907.823 864, 907.607 864 C 907.391 864, 906.955 864.675, 906.638 865.500 M 848.500 867 C 848.840 867.550, 849.316 868, 849.559 868 C 849.802 868, 850 867.550, 850 867 C 850 866.450, 849.523 866, 848.941 866 C 848.359 866, 848.160 866.450, 848.500 867 M 903.744 867.750 C 902.898 869.448, 903.606 871.325, 905.181 871.556 C 906.263 871.715, 906.670 871.304, 906.324 870.401 C 906.028 869.631, 905.358 869, 904.834 869 C 904.310 869, 904.160 868.550, 904.500 868 C 904.840 867.450, 904.893 867, 904.618 867 C 904.343 867, 903.950 867.337, 903.744 867.750 M 798.813 868.683 C 799.534 868.972, 800.397 868.936, 800.729 868.604 C 801.061 868.272, 800.471 868.036, 799.417 868.079 C 798.252 868.127, 798.015 868.364, 798.813 868.683 M 922.756 869.664 C 923.447 869.943, 923.715 870.652, 923.352 871.240 C 922.958 871.877, 923.164 872.017, 923.862 871.585 C 925.239 870.735, 924.412 868.965, 922.691 869.079 C 921.839 869.135, 921.857 869.302, 922.756 869.664 M 807.500 872 C 807.840 872.550, 808.316 873, 808.559 873 C 808.802 873, 809 872.550, 809 872 C 809 871.450, 808.523 871, 807.941 871 C 807.359 871, 807.160 871.450, 807.500 872 M 872.564 873.293 C 872.940 874.279, 873.499 874.834, 873.807 874.526 C 874.115 874.219, 873.808 873.412, 873.124 872.733 C 872.136 871.753, 872.022 871.868, 872.564 873.293 M 994.500 876 C 994.840 876.550, 995.316 877, 995.559 877 C 995.802 877, 996 876.550, 996 876 C 996 875.450, 995.523 875, 994.941 875 C 994.359 875, 994.160 875.450, 994.500 876 M 863 880 C 863 880.550, 863.477 881, 864.059 881 C 864.641 881, 864.840 880.550, 864.500 880 C 864.160 879.450, 863.684 879, 863.441 879 C 863.198 879, 863 879.450, 863 880 M 893 883.094 C 893 883.592, 893.900 884, 895 884 C 896.100 884, 897 883.827, 897 883.617 C 897 883.406, 896.100 882.998, 895 882.710 C 893.900 882.423, 893 882.595, 893 883.094 M 915.079 884.191 C 914.968 886.564, 916.598 887.298, 920.398 886.585 C 922.329 886.223, 923.667 885.370, 923.667 884.502 C 923.667 883.350, 923.361 883.285, 922.257 884.202 C 921.164 885.108, 920.643 885.049, 919.939 883.936 C 919.308 882.939, 919.026 882.882, 919.015 883.750 C 919.007 884.438, 918.362 885, 917.583 885 C 916.804 885, 915.940 884.438, 915.662 883.750 C 915.352 882.980, 915.128 883.150, 915.079 884.191 M 890.657 886.326 C 890.021 886.782, 891.919 886.873, 894.877 886.527 C 899.588 885.975, 900.176 886.100, 899.626 887.532 C 899.218 888.595, 899.437 889.008, 900.249 888.714 C 900.937 888.465, 902.288 888.947, 903.250 889.785 C 904.847 891.177, 905 891.121, 905 889.155 C 905 887.970, 904.888 886.663, 904.750 886.250 C 904.409 885.226, 892.099 885.293, 890.657 886.326 M 907.607 886.582 C 906.781 888.734, 906.868 889.740, 907.765 888.415 C 908.169 887.818, 909.400 886.819, 910.500 886.195 C 912.467 885.080, 912.464 885.060, 910.357 885.030 C 909.178 885.014, 907.941 885.712, 907.607 886.582 M 902 886.941 C 902 887.459, 902.375 888.114, 902.833 888.397 C 903.292 888.680, 903.667 888.257, 903.667 887.456 C 903.667 886.655, 903.292 886, 902.833 886 C 902.375 886, 902 886.423, 902 886.941 M 825.500 890 C 825.840 890.550, 826.316 891, 826.559 891 C 826.802 891, 827 890.550, 827 890 C 827 889.450, 826.523 889, 825.941 889 C 825.359 889, 825.160 889.450, 825.500 890 M 848.158 895 C 848.158 896.375, 848.385 896.938, 848.662 896.250 C 848.940 895.563, 848.940 894.438, 848.662 893.750 C 848.385 893.063, 848.158 893.625, 848.158 895 M 888.733 900.124 C 889.412 900.808, 890.219 901.115, 890.526 900.807 C 890.834 900.499, 890.279 899.940, 889.293 899.564 C 887.868 899.022, 887.753 899.136, 888.733 900.124 M 901.738 902.692 C 900.769 902.945, 900.276 903.638, 900.644 904.233 C 901.079 904.936, 900.557 905.117, 899.156 904.751 C 897.970 904.441, 897 904.595, 897 905.094 C 897 905.592, 897.563 906.033, 898.250 906.074 C 898.938 906.115, 900.456 906.329, 901.625 906.549 C 903.327 906.870, 903.750 906.457, 903.750 904.475 C 903.750 903.114, 903.694 902.052, 903.625 902.116 C 903.556 902.180, 902.707 902.439, 901.738 902.692 M 913.638 904.500 C 914.003 905.450, 913.625 906, 912.607 906 C 911.723 906, 911 906.450, 911 907 C 911 907.550, 911.380 908, 911.845 908 C 913.183 908, 916.076 904.410, 915.336 903.669 C 914.119 902.452, 913.053 902.974, 913.638 904.500 M 883 905.393 C 883 905.609, 883.698 906.054, 884.552 906.382 C 885.442 906.723, 885.843 906.555, 885.493 905.989 C 884.906 905.038, 883 904.583, 883 905.393 M 887.500 907 C 887.160 907.550, 887.332 908, 887.882 908 C 888.432 908, 889.160 907.550, 889.500 907 C 889.840 906.450, 889.668 906, 889.118 906 C 888.568 906, 887.840 906.450, 887.500 907 M 892 908 C 892 908.550, 892.477 909, 893.059 909 C 893.641 909, 893.840 908.550, 893.500 908 C 893.160 907.450, 892.684 907, 892.441 907 C 892.198 907, 892 907.450, 892 908 M 892.079 911.583 C 892.127 912.748, 892.364 912.985, 892.683 912.188 C 892.972 911.466, 892.936 910.603, 892.604 910.271 C 892.272 909.939, 892.036 910.529, 892.079 911.583 M 575 920 C 575 920.550, 575.477 921, 576.059 921 C 576.641 921, 576.840 920.550, 576.500 920 C 576.160 919.450, 575.684 919, 575.441 919 C 575.198 919, 575 919.450, 575 920 M 993.839 939.002 C 993.652 942.303, 993.837 945.003, 994.250 945.002 C 994.663 945.001, 995 942.300, 995 939 C 995 931.254, 994.276 931.255, 993.839 939.002 M 933.507 938.989 C 933.157 939.555, 933.558 939.723, 934.448 939.382 C 936.180 938.717, 936.497 938, 935.059 938 C 934.541 938, 933.843 938.445, 933.507 938.989 M 930 940 C 930 940.550, 930.450 941, 931 941 C 931.550 941, 932 940.550, 932 940 C 932 939.450, 931.550 939, 931 939 C 930.450 939, 930 939.450, 930 940 M 921.638 942.500 C 921.322 943.325, 921.499 944, 922.031 944 C 922.564 944, 923 943.325, 923 942.500 C 923 941.675, 922.823 941, 922.607 941 C 922.391 941, 921.955 941.675, 921.638 942.500 M 926 942 C 924.707 942.835, 924.734 942.971, 926.191 942.985 C 927.121 942.993, 928.160 942.550, 928.500 942 C 929.282 940.734, 927.958 940.734, 926 942 M 992.881 948.781 C 992.552 950.769, 992.698 951.702, 993.253 951.147 C 993.757 950.643, 994.002 949.166, 993.797 947.865 C 993.482 945.864, 993.342 946.004, 992.881 948.781 M 942.813 1004.683 C 943.534 1004.972, 944.397 1004.936, 944.729 1004.604 C 945.061 1004.272, 944.471 1004.036, 943.417 1004.079 C 942.252 1004.127, 942.015 1004.364, 942.813 1004.683 M 937.750 1005.662 C 938.438 1005.940, 939.563 1005.940, 940.250 1005.662 C 940.938 1005.385, 940.375 1005.158, 939 1005.158 C 937.625 1005.158, 937.063 1005.385, 937.750 1005.662" stroke="none" fill="#9141ac" fill-rule="evenodd"/>
</svg>